<?xml version="1.0" standalone="no"?>
<!DOCTYPE svg PUBLIC "-//W3C//DTD SVG 20010904//EN"
 "http://www.w3.org/TR/2001/REC-SVG-20010904/DTD/svg10.dtd">
<svg version="1.0" xmlns="http://www.w3.org/2000/svg"
 width="1948.000000pt" height="1948.000000pt" viewBox="0 0 1948.000000 1948.000000"
 preserveAspectRatio="xMidYMid meet">

<g transform="translate(0.000000,1948.000000) scale(0.100000,-0.100000)"
fill="#000000" stroke="none">
<path d="M0 9740 l0 -9740 9740 0 9740 0 0 9740 0 9740 -9740 0 -9740 0 0
-9740z m9037 4715 c107 -247 230 -538 275 -645 44 -107 190 -451 323 -765 134
-313 301 -709 373 -880 127 -303 299 -690 360 -811 43 -85 140 -212 206 -270
31 -27 89 -67 129 -89 l72 -41 3 -47 3 -47 -910 0 -911 0 0 50 c0 39 4 52 18
56 9 3 49 21 88 40 170 81 217 211 152 422 -16 52 -144 373 -278 700 l-10 22
-770 0 -770 0 -14 -22 c-23 -36 -144 -377 -183 -517 -27 -97 -35 -144 -35
-206 1 -190 96 -341 268 -422 l74 -35 0 -44 0 -44 -580 0 -580 0 0 54 0 55 63
33 c78 41 235 195 299 293 98 149 234 452 415 920 97 251 266 679 578 1460 70
176 159 399 198 495 88 222 90 247 29 375 -24 49 -66 129 -93 178 -28 49 -49
90 -47 91 2 2 152 15 333 30 182 15 402 36 490 46 88 10 178 17 200 16 l39 -1
193 -450z m-6516 15 c88 -206 222 -523 298 -705 564 -1346 723 -1715 740
-1715 8 0 101 227 276 675 139 355 537 1365 752 1908 l87 217 678 0 678 0 0
-44 0 -43 -57 -21 c-145 -53 -251 -199 -284 -389 -17 -100 -8 -312 66 -1448
36 -550 72 -1112 80 -1250 9 -137 22 -284 30 -325 31 -160 121 -281 260 -346
l75 -36 0 -44 0 -44 -855 0 -855 0 0 45 c0 34 4 47 18 52 116 40 220 119 264
200 63 116 74 261 49 633 -6 85 -22 340 -36 565 -57 942 -66 1081 -80 1320
-25 418 -27 445 -34 445 -3 0 -16 -29 -29 -65 -21 -61 -273 -706 -695 -1780
-101 -258 -251 -641 -332 -850 -81 -209 -165 -423 -185 -475 l-38 -95 -206 -3
-207 -2 -36 77 c-19 43 -69 159 -110 258 -41 99 -139 331 -218 515 -262 614
-698 1647 -928 2200 -33 80 -64 149 -68 155 -5 5 -9 -10 -9 -35 0 -69 -17
-372 -55 -990 -84 -1367 -85 -1398 -60 -1543 41 -234 160 -411 337 -502 l78
-40 0 -42 0 -43 -575 0 -575 0 0 44 c0 44 1 45 60 77 193 103 318 307 364 594
8 55 25 251 36 435 21 359 30 487 87 1355 22 342 37 644 37 775 1 211 0 216
-27 295 -16 44 -42 101 -59 127 -44 70 -127 141 -202 174 l-66 28 0 43 0 43
686 -2 686 -3 159 -375z m10899 356 c248 -37 409 -79 572 -151 244 -107 448
-297 537 -500 82 -188 98 -447 41 -670 -66 -257 -284 -503 -554 -625 -135 -62
-351 -126 -553 -166 -27 -5 -31 -24 -5 -24 35 0 170 -40 250 -74 106 -44 210
-114 270 -181 48 -55 190 -295 317 -540 130 -249 248 -461 310 -557 77 -118
184 -232 270 -288 61 -40 181 -89 218 -90 14 0 17 -9 17 -50 0 -41 -3 -50 -17
-50 -10 0 -135 -9 -278 -20 -297 -22 -441 -25 -587 -9 -136 15 -315 62 -406
106 -96 47 -205 149 -273 255 -57 89 -280 538 -436 878 -113 246 -200 406
-251 462 -75 83 -166 108 -389 108 l-144 0 4 -647 c3 -565 5 -655 19 -702 48
-156 123 -244 261 -306 60 -27 86 -44 82 -53 -3 -7 -5 -27 -5 -43 l0 -29 -855
0 -855 0 0 44 0 44 74 35 c133 63 198 140 238 283 l23 79 0 1510 0 1510 -23
80 c-42 147 -101 219 -239 289 -73 36 -73 37 -73 77 l0 40 1163 -4 c1033 -3
1175 -5 1277 -21z m5044 -18 c3 -24 17 -155 31 -293 14 -137 36 -347 49 -465
12 -118 22 -216 21 -218 -1 -1 -32 -5 -68 -9 l-67 -6 -16 39 c-96 236 -169
358 -279 467 -115 114 -254 195 -433 251 -164 51 -237 58 -654 63 l-388 5 0
-812 0 -812 343 5 c315 3 348 5 415 26 155 46 263 120 334 228 45 68 89 168
103 231 l7 33 61 -3 62 -3 3 -628 2 -628 -62 3 -61 3 -23 67 c-63 189 -178
328 -316 386 -126 52 -212 62 -559 62 l-309 0 2 -861 3 -861 385 1 c530 3 686
25 904 130 270 131 479 374 607 709 l24 62 72 0 c71 0 73 -1 73 -25 0 -34 -52
-443 -101 -797 l-42 -298 -1633 0 -1634 0 0 50 c0 36 4 50 14 50 7 0 45 16 83
35 107 53 172 134 212 260 14 44 16 220 18 1555 4 1656 6 1594 -57 1729 -39
83 -106 147 -200 192 l-70 34 0 43 0 42 1569 0 1569 0 6 -42z m-14340 -4808
c145 -21 261 -106 322 -234 47 -97 46 -106 -15 -106 l-50 0 -24 54 c-34 73
-88 130 -155 163 -51 25 -68 28 -157 28 -87 0 -107 -4 -157 -27 -171 -80 -253
-307 -202 -555 28 -139 98 -239 203 -290 50 -25 67 -28 156 -28 87 0 107 3
156 26 108 51 172 147 186 280 l6 59 -167 0 -166 0 0 45 0 45 216 0 217 0 -5
-112 c-6 -125 -26 -194 -81 -275 -111 -164 -372 -220 -575 -122 -167 81 -262
266 -262 509 0 329 173 534 465 549 11 0 51 -4 89 -9z m4596 -1 c161 -26 270
-122 294 -262 l7 -38 -52 3 c-51 3 -52 3 -64 45 -19 63 -50 99 -113 130 -50
24 -69 28 -147 28 -79 0 -97 -4 -148 -28 -132 -65 -146 -224 -26 -300 29 -17
100 -41 201 -66 178 -45 229 -65 282 -111 58 -52 80 -102 80 -190 2 -168 -103
-272 -302 -302 -155 -23 -319 25 -401 118 -39 45 -71 116 -71 161 0 21 4 23
48 23 49 0 49 0 61 -42 31 -104 118 -159 261 -166 189 -9 300 67 300 205 0
107 -56 149 -274 203 -233 58 -291 89 -341 182 -23 41 -28 64 -28 117 0 172
131 283 353 300 8 0 44 -4 80 -10z m6805 1 c189 -28 327 -158 382 -362 13 -45
17 -99 17 -193 -1 -111 -5 -141 -26 -207 -14 -43 -40 -100 -57 -127 -98 -152
-279 -230 -472 -203 -204 29 -344 162 -394 373 -19 83 -19 265 0 348 49 206
191 342 386 371 76 11 86 11 164 0z m-8899 -530 c107 -283 197 -523 200 -532
5 -16 -2 -18 -48 -18 l-54 0 -44 123 c-24 67 -52 141 -61 165 l-18 42 -221 0
-221 0 -18 -42 c-9 -24 -37 -98 -61 -165 l-44 -123 -53 0 c-29 0 -53 2 -53 5
0 3 234 628 391 1043 8 21 14 23 60 20 l51 -3 194 -515z m4634 475 l0 -45
-177 -2 -178 -3 -3 -487 -2 -488 -50 0 -50 0 0 490 0 490 -175 0 -175 0 0 45
0 45 405 0 405 0 0 -45z m2022 17 c68 -28 132 -87 161 -150 31 -68 30 -208 -2
-274 -28 -57 -104 -131 -154 -149 -20 -7 -37 -17 -37 -22 0 -8 172 -315 232
-415 l20 -33 -62 3 -63 3 -121 215 -121 215 -143 3 -142 3 0 -221 0 -220 -50
0 -50 0 0 536 0 536 238 -4 c218 -3 242 -6 294 -26z m-4514 -1872 c408 -19
917 -83 1277 -161 218 -47 606 -146 750 -190 688 -213 1428 -550 1970 -898
181 -116 195 -125 195 -133 0 -3 -52 -48 -116 -99 -115 -92 -117 -93 -143 -77
-14 8 -125 75 -246 149 -488 295 -1125 580 -1676 748 -563 172 -871 238 -1429
306 -408 49 -563 59 -970 59 -410 1 -578 -10 -990 -60 -559 -68 -1007 -171
-1550 -358 -507 -175 -978 -405 -1390 -679 -215 -143 -477 -345 -488 -377 -7
-20 371 -310 553 -424 398 -250 775 -435 1206 -589 827 -298 1616 -439 2534
-454 995 -16 1841 121 2805 455 585 202 1170 492 1685 835 407 270 584 426
1135 993 91 94 210 208 265 253 349 289 837 520 1270 601 153 28 413 60 492
60 l65 0 -7 -56 c-11 -94 -62 -285 -110 -421 -123 -341 -326 -666 -567 -905
-88 -88 -276 -235 -381 -299 -31 -19 -57 -37 -57 -41 0 -4 46 -38 103 -77 346
-236 591 -518 778 -891 73 -148 151 -356 188 -507 28 -110 51 -224 51 -246 0
-25 -409 18 -615 64 -367 82 -770 259 -1050 462 -193 141 -276 217 -605 558
l-209 215 112 94 111 94 260 -266 c144 -147 293 -292 331 -323 348 -283 816
-498 1239 -570 39 -6 39 -6 33 23 -10 52 -86 234 -134 322 -175 321 -370 533
-687 743 -116 78 -348 197 -498 257 -60 24 -107 44 -105 45 1 2 65 31 142 65
397 177 572 284 769 471 145 137 274 312 387 524 53 99 141 314 133 326 -4 7
-113 -11 -236 -40 -152 -36 -328 -100 -483 -176 -331 -162 -497 -283 -755
-549 -501 -516 -655 -657 -953 -874 -735 -535 -1497 -905 -2450 -1191 -957
-288 -2015 -388 -3107 -295 -1325 113 -2614 574 -3560 1275 -197 146 -520 428
-520 453 0 8 55 65 123 128 646 606 1615 1113 2652 1387 382 101 619 147 1055
205 433 58 945 78 1418 56z m-3238 -1442 c132 -67 132 -249 0 -315 -24 -13
-60 -23 -80 -23 -49 0 -120 38 -147 79 -61 92 -31 209 67 259 24 12 60 22 80
22 20 0 56 -10 80 -22z"/>
<path d="M8123 14063 c-23 -65 -284 -741 -343 -888 -40 -99 -119 -304 -176
-455 -58 -151 -111 -292 -119 -312 l-15 -38 689 0 689 0 -48 123 c-27 67 -178
435 -338 817 -159 382 -295 712 -303 733 -14 40 -26 47 -36 20z"/>
<path d="M12338 14634 c-5 -4 -8 -405 -8 -891 l0 -883 233 0 c327 0 452 18
592 85 137 65 243 173 316 320 101 206 125 529 59 805 -70 291 -269 484 -565
547 -77 16 -614 31 -627 17z"/>
<path d="M15333 9896 c-153 -50 -242 -169 -265 -354 -30 -232 53 -432 211
-509 50 -25 66 -28 161 -28 93 0 112 3 161 26 143 67 219 214 219 424 0 156
-35 258 -117 346 -67 72 -133 101 -241 105 -56 3 -102 -1 -129 -10z"/>
<path d="M6286 9608 c-49 -134 -91 -249 -93 -255 -4 -10 37 -13 187 -13 179 0
192 1 185 18 -3 9 -45 124 -93 255 -48 130 -89 237 -92 237 -3 0 -46 -109 -94
-242z"/>
<path d="M12850 9675 l0 -227 183 4 184 3 48 30 c67 41 95 97 95 184 -1 105
-39 170 -125 208 -32 13 -76 18 -212 21 l-173 4 0 -227z"/>
</g>
</svg>
